<svg width="18" height="22" viewBox="0 0 18 22" fill="none" xmlns="http://www.w3.org/2000/svg">
<mask id="path-1-inside-1" fill="white">
<path d="M5 3H3V19H5V3Z"/>
</mask>
<path d="M3 3V1H1V3H3ZM5 3H7V1H5V3ZM5 19V21H7V19H5ZM3 19H1V21H3V19ZM3 5H5V1H3V5ZM3 3V19H7V3H3ZM5 17H3V21H5V17ZM5 19V3H1V19H5Z" fill="#CC00FF" mask="url(#path-1-inside-1)"/>
<mask id="path-3-inside-2" fill="white">
<path d="M15 3H13V19H15V3Z"/>
</mask>
<path d="M13 3V1H11V3H13ZM15 3H17V1H15V3ZM15 19V21H17V19H15ZM13 19H11V21H13V19ZM13 5H15V1H13V5ZM13 3V19H17V3H13ZM15 17H13V21H15V17ZM15 19V3H11V19H15Z" fill="#CC00FF" mask="url(#path-3-inside-2)"/>
<path d="M12 1H11V2V20V21H12H16H17V20V2V1H16H12ZM7 2V1H6H2H1V2V20V21H2H6H7V20V2Z" stroke="#CC00FF" stroke-width="2"/>
<path d="M2 2.5H2.5M2.5 2.5H5.5V19.5H2.5V2.5Z" stroke="#CC00FF"/>
<path d="M15.5 2.5H12.5V19.5H15.5V2.5Z" stroke="#CC00FF"/>
</svg>
