<svg width="78" height="78" viewBox="0 0 78 78" fill="none" xmlns="http://www.w3.org/2000/svg">
<g filter="url(#filter0_d)">
<path d="M39 12C26.2975 12 16 22.2975 16 35H62C62 22.2975 51.7025 12 39 12Z" stroke="#FFFF33" stroke-width="2"/>
<path d="M61.6534 39H16.3466C16.5885 40.3796 16.9534 41.7168 17.4295 43H60.5705C61.0466 41.7168 61.4115 40.3796 61.6534 39Z" stroke="#FFFF33" stroke-width="2"/>
<path d="M58.6253 47H19.3747C20.2612 48.4467 21.3031 49.7877 22.4773 51H55.5227C56.6969 49.7877 57.7388 48.4467 58.6253 47Z" stroke="#FFFF33" stroke-width="2"/>
<path d="M27.6341 55C30.9866 56.9093 34.8659 58 39 58C43.1341 58 47.0134 56.9093 50.3659 55H27.6341Z" stroke="#FFFF33" stroke-width="2"/>
<path d="M57.5784 31H20.4216C22.258 22.4276 29.8792 16 39 16C48.1208 16 55.742 22.4276 57.5784 31Z" stroke="#FFFF33" stroke-width="2"/>
</g>
<defs>
<filter id="filter0_d" x="0" y="0" width="78" height="78" filterUnits="userSpaceOnUse" color-interpolation-filters="sRGB">
<feFlood flood-opacity="0" result="BackgroundImageFix"/>
<feColorMatrix in="SourceAlpha" type="matrix" values="0 0 0 0 0 0 0 0 0 0 0 0 0 0 0 0 0 0 127 0"/>
<feOffset dy="4"/>
<feGaussianBlur stdDeviation="7.5"/>
<feColorMatrix type="matrix" values="0 0 0 0 1 0 0 0 0 1 0 0 0 0 0.2 0 0 0 1 0"/>
<feBlend mode="normal" in2="BackgroundImageFix" result="effect1_dropShadow"/>
<feBlend mode="normal" in="SourceGraphic" in2="effect1_dropShadow" result="shape"/>
</filter>
</defs>
</svg>
