<svg width="74" height="61" viewBox="0 0 74 61" fill="none" xmlns="http://www.w3.org/2000/svg">
<g filter="url(#filter0_d)">
<path d="M19.9779 39.4937C21.6571 43.5318 35.0649 41.4176 41.5276 37.7346C47.9902 34.0516 54.7612 28.0192 53.9616 24.0212M19.9779 39.4937C20.0179 35.5356 29.0341 30.6878 35.0107 27.6994C40.9873 24.711 49.4837 22.5419 53.9616 24.0212M19.9779 39.4937C19.9779 39.4937 19.3818 37.4879 21.2973 34.5761C22.5169 32.7223 23.2017 31.5327 24.4558 30.0583C26.883 27.4113 27.0146 23.5414 31.7323 21.1026C36.2701 18.7568 39.0433 20.4676 43.0868 21.1026C46.805 21.5024 48.0045 21.3425 50.8031 21.7423C53.6018 22.1421 53.9616 24.0212 53.9616 24.0212M34.5 35.5L43 31.5M16.6197 40.3733C19.0727 48.1319 36.6642 44.576 43.1268 40.893C49.5895 37.21 59.399 29.1387 57.1601 22.9417C57.1601 22.9417 55.1924 18.9619 52.2424 18.4639C49.2924 17.9658 46.4783 17.8541 43.5666 17.6243C39.5231 16.9893 36.4219 15.4145 31.6923 17.3444C24.7357 20.183 24.4558 24.2611 22.2169 27.5395C20.9628 29.0139 19.0786 31.4829 17.859 33.3367C15.9434 36.2485 16.6197 40.3733 16.6197 40.3733ZM43.9664 30.9778C44.3409 31.5802 43.0049 33.1396 39.0088 35.0559C35.2855 36.6317 33.5408 36.8361 33.0117 36.0954C32.8324 35.8444 34.0225 34.1107 37.2497 32.4971C41.2656 30.4712 43.5541 30.3145 43.9664 30.9778ZM22 30.5L23.5 28.5L25.5 25.5L28 21.5L32 19L37 18L41 19L47.5 19.5L53.5 20.5L56 24.5L54 29.5L48 35.5L41.5 40L34 42.5L23 43.5L18.5 41L18 37.5L19 35L22 30.5Z" stroke="#CC00FF" stroke-width="2"/>
</g>
<defs>
<filter id="filter0_d" x="0.503859" y="0.420597" width="72.982" height="60.5757" filterUnits="userSpaceOnUse" color-interpolation-filters="sRGB">
<feFlood flood-opacity="0" result="BackgroundImageFix"/>
<feColorMatrix in="SourceAlpha" type="matrix" values="0 0 0 0 0 0 0 0 0 0 0 0 0 0 0 0 0 0 127 0"/>
<feOffset/>
<feGaussianBlur stdDeviation="7.5"/>
<feColorMatrix type="matrix" values="0 0 0 0 0.8 0 0 0 0 0 0 0 0 0 1 0 0 0 1 0"/>
<feBlend mode="normal" in2="BackgroundImageFix" result="effect1_dropShadow"/>
<feBlend mode="normal" in="SourceGraphic" in2="effect1_dropShadow" result="shape"/>
</filter>
</defs>
</svg>
