<svg width="72" height="58" viewBox="0 0 72 58" fill="none" xmlns="http://www.w3.org/2000/svg">
<g filter="url(#filter0_d)">
<path d="M56 29.0007V29.0037V29.0166L55.9998 29.0694C55.9996 29.1163 55.9992 29.1861 55.9983 29.2764C55.9966 29.4571 55.9933 29.7197 55.9865 30.0449C55.9729 30.6958 55.9458 31.5952 55.8916 32.5898C55.7814 34.6102 55.5643 36.9156 55.1581 38.3565L55.158 38.3569C54.7748 39.7181 53.6464 40.8136 52.1597 41.1958C51.4409 41.3792 50.0924 41.532 48.3935 41.65C46.7213 41.7661 44.7879 41.844 42.9479 41.896C41.1094 41.948 39.3717 41.974 38.0932 41.987C37.4541 41.9935 36.9302 41.9968 36.5663 41.9984C36.3844 41.9992 36.2425 41.9996 36.1462 41.9998L36.0368 42H36.009H36.0021H36.0005H36.0001L36 43L35.9999 42H35.9995H35.9979H35.991H35.9632L35.8538 41.9998C35.7576 41.9996 35.6157 41.9992 35.4337 41.9984C35.0699 41.9967 34.5459 41.9935 33.9069 41.987C32.6283 41.9739 30.8906 41.9479 29.052 41.8958C27.2119 41.8437 25.2784 41.7657 23.606 41.6494C21.9072 41.5313 20.5585 41.3782 19.8394 41.1946C18.3533 40.8123 17.2254 39.7174 16.8419 38.3566V38.3565C16.4357 36.9156 16.2186 34.6102 16.1084 32.5898C16.0542 31.5952 16.0271 30.6958 16.0135 30.0449C16.0067 29.7197 16.0034 29.4571 16.0017 29.2764C16.0008 29.1861 16.0004 29.1163 16.0002 29.0694L16 29.0166V29.0037V29.0007V29.0001V29V28.9999V28.9993V28.9963V28.9834L16.0002 28.9306C16.0004 28.8837 16.0008 28.8138 16.0017 28.7235C16.0034 28.5428 16.0067 28.2802 16.0135 27.9549C16.0271 27.3039 16.0542 26.4043 16.1084 25.4097C16.2186 23.389 16.4357 21.0837 16.8419 19.6436L16.842 19.6431C17.2253 18.2818 18.3538 17.1862 19.8405 16.8041C20.5599 16.6208 21.9085 16.4679 23.6072 16.35C25.2794 16.2339 27.2128 16.156 29.0527 16.104C30.8911 16.052 32.6286 16.026 33.9071 16.013C34.5461 16.0065 35.0699 16.0032 35.4338 16.0016C35.6157 16.0008 35.7576 16.0004 35.8538 16.0002L35.9632 16H35.991H35.9979H35.9995H35.9999L36 15L36.0001 16H36.0005H36.0021H36.009H36.0368L36.1462 16.0002C36.2425 16.0004 36.3844 16.0008 36.5663 16.0016C36.9302 16.0032 37.4541 16.0065 38.0932 16.013C39.3718 16.026 41.1095 16.052 42.9481 16.104C44.7882 16.156 46.7217 16.2339 48.3941 16.35C50.0928 16.4679 51.4415 16.6207 52.1609 16.8041C53.6468 17.1865 54.7745 18.2815 55.1577 19.6421C55.5621 21.0846 55.7792 23.3908 55.8899 25.411C55.9444 26.4056 55.9719 27.305 55.9859 27.9559C55.9928 28.2811 55.9963 28.5436 55.9981 28.7242C55.999 28.8146 55.9995 28.8844 55.9997 28.9312L56 28.9841V28.997V28.9999V29V29.0007Z" stroke="#FF4466" stroke-width="2"/>
<path d="M35.9999 19L36 18L36.0001 19H36.0004H36.0018H36.0077H36.0314L36.1252 19.0002C36.2076 19.0003 36.3292 19.0006 36.4851 19.0013C36.7969 19.0025 37.2459 19.0051 37.7936 19.0102C38.8892 19.0204 40.3784 19.0409 41.9538 19.0817C43.5307 19.1226 45.1871 19.1837 46.6194 19.2749C48.076 19.3676 49.2264 19.4874 49.8362 19.6298C51.096 19.9271 51.9933 20.7629 52.2899 21.7278C52.6261 22.8269 52.8112 24.6089 52.9061 26.1967C52.9526 26.974 52.9761 27.6772 52.988 28.1861C52.9939 28.4404 52.9969 28.6455 52.9984 28.7864C52.9992 28.8568 52.9996 28.9112 52.9998 28.9475L53 28.9884V28.9982V28.9999V29.0004V29.0008V29.0026V29.0124L52.9998 29.0532C52.9997 29.0896 52.9993 29.1439 52.9986 29.2143C52.9971 29.3553 52.9943 29.5604 52.9885 29.8146C52.9769 30.3236 52.9537 31.0268 52.9075 31.804C52.8131 33.392 52.628 35.1731 52.2904 36.2708L52.2902 36.2712C51.9938 37.2366 51.0959 38.0729 49.8353 38.37C49.2261 38.5125 48.0758 38.6324 46.6189 38.7251C45.1867 38.8163 43.5305 38.8774 41.9537 38.9183C40.3783 38.9591 38.8892 38.9796 37.7935 38.9898C37.2459 38.9949 36.7969 38.9975 36.4851 38.9987C36.3292 38.9994 36.2076 38.9997 36.1252 38.9998L36.0314 39H36.0077H36.0018H36.0004H36.0001L36 40L35.9999 39H35.9996H35.9982H35.9923H35.9686L35.8748 38.9998C35.7924 38.9997 35.6708 38.9994 35.5149 38.9987C35.2031 38.9974 34.7541 38.9949 34.2065 38.9898C33.1108 38.9795 31.6217 38.9591 30.0463 38.9182C28.4694 38.8772 26.813 38.816 25.3808 38.7247C23.9236 38.6318 22.7731 38.5117 22.1636 38.369C20.9037 38.0717 20.0063 37.236 19.7097 36.2709L19.7096 36.2708C19.372 35.1731 19.1869 33.392 19.0925 31.804C19.0463 31.0268 19.0231 30.3236 19.0115 29.8146C19.0057 29.5604 19.0029 29.3553 19.0014 29.2143C19.0007 29.1439 19.0003 29.0896 19.0002 29.0532L19 29.0124V29.0026V29.0004V29.0001V28.9999V28.9996V28.9975V28.9876L19.0002 28.9468C19.0003 28.9104 19.0007 28.8561 19.0014 28.7856C19.0029 28.6447 19.0057 28.4395 19.0115 28.1852C19.0231 27.6762 19.0463 26.9729 19.0925 26.1956C19.1869 24.6074 19.372 22.8264 19.7096 21.7294L19.7097 21.7288C20.0063 20.7632 20.9043 19.9269 22.165 19.6299C22.7748 19.4874 23.9251 19.3676 25.3817 19.2749C26.8139 19.1837 28.4701 19.1226 30.0469 19.0817C31.6222 19.0409 33.1111 19.0204 34.2067 19.0102C34.7543 19.0051 35.2032 19.0025 35.5149 19.0013C35.6708 19.0006 35.7924 19.0003 35.8748 19.0002L35.9686 19H35.9923H35.9982H35.9996H35.9999Z" stroke="#FF4466" stroke-width="2"/>
<path d="M32 34V35.6178L33.4471 34.8945L43.4471 29.8962L45.2361 29.002L43.4473 28.1074L33.4473 23.1056L32 22.3817V24V34Z" fill="#FF4466" stroke="#FF4466" stroke-width="2"/>
<path d="M21.5 18L19 19L17.5 25V33L18 37L19.5 39L22.5 40H39.5H51L53 38.5L53.5 37.5L54 33V25.5V20.5L52.5 19L49 17.5L32.5 17L21.5 18Z" stroke="#FF4466" stroke-width="2"/>
</g>
<defs>
<filter id="filter0_d" x="-7.62939e-06" y="-9.91821e-05" width="72" height="58.0002" filterUnits="userSpaceOnUse" color-interpolation-filters="sRGB">
<feFlood flood-opacity="0" result="BackgroundImageFix"/>
<feColorMatrix in="SourceAlpha" type="matrix" values="0 0 0 0 0 0 0 0 0 0 0 0 0 0 0 0 0 0 127 0"/>
<feOffset/>
<feGaussianBlur stdDeviation="7.5"/>
<feColorMatrix type="matrix" values="0 0 0 0 1 0 0 0 0 0.266667 0 0 0 0 0.4 0 0 0 1 0"/>
<feBlend mode="normal" in2="BackgroundImageFix" result="effect1_dropShadow"/>
<feBlend mode="normal" in="SourceGraphic" in2="effect1_dropShadow" result="shape"/>
</filter>
</defs>
</svg>
